<?xml version="1.0" encoding="UTF-8" standalone="no"?>
<!DOCTYPE svg PUBLIC "-//W3C//DTD SVG 1.1//EN"
 "http://www.w3.org/Graphics/SVG/1.1/DTD/svg11.dtd">
<!-- Generated by graphviz version 2.43.0 (0)
 -->
<!-- Title: G Pages: 1 -->
<svg width="314pt" height="260pt"
 viewBox="0.00 0.00 314.00 260.00" xmlns="http://www.w3.org/2000/svg" xmlns:xlink="http://www.w3.org/1999/xlink">
<g id="graph0" class="graph" transform="scale(1 1) rotate(0) translate(4 256)">
<title>G</title>
<polygon fill="white" stroke="transparent" points="-4,4 -4,-256 310,-256 310,4 -4,4"/>
<!-- n1 -->
<g id="node1" class="node">
<title>n1</title>
<ellipse fill="none" stroke="black" cx="171" cy="-234" rx="27" ry="18"/>
<text text-anchor="middle" x="171" y="-230.3" font-family="Times,serif" font-size="14.00">+</text>
</g>
<!-- n2 -->
<g id="node2" class="node">
<title>n2</title>
<ellipse fill="none" stroke="black" cx="135" cy="-162" rx="27" ry="18"/>
<text text-anchor="middle" x="135" y="-158.3" font-family="Times,serif" font-size="14.00">&#45;</text>
</g>
<!-- n1&#45;&#45;n2 -->
<g id="edge1" class="edge">
<title>n1&#45;&#45;n2</title>
<path fill="none" stroke="black" d="M162.65,-216.76C156.83,-205.46 149.11,-190.44 143.3,-179.15"/>
</g>
<!-- n13 -->
<g id="node7" class="node">
<title>n13</title>
<ellipse fill="none" stroke="black" cx="207" cy="-162" rx="27" ry="18"/>
<text text-anchor="middle" x="207" y="-158.3" font-family="Times,serif" font-size="14.00">&#45;</text>
</g>
<!-- n1&#45;&#45;n13 -->
<g id="edge6" class="edge">
<title>n1&#45;&#45;n13</title>
<path fill="none" stroke="black" d="M179.35,-216.76C185.17,-205.46 192.89,-190.44 198.7,-179.15"/>
</g>
<!-- n3 -->
<g id="node3" class="node">
<title>n3</title>
<ellipse fill="none" stroke="black" cx="63" cy="-90" rx="27" ry="18"/>
<text text-anchor="middle" x="63" y="-86.3" font-family="Times,serif" font-size="14.00">&#45;</text>
</g>
<!-- n2&#45;&#45;n3 -->
<g id="edge2" class="edge">
<title>n2&#45;&#45;n3</title>
<path fill="none" stroke="black" d="M120.43,-146.83C108.02,-134.77 90.27,-117.51 77.8,-105.38"/>
</g>
<!-- n10 -->
<g id="node6" class="node">
<title>n10</title>
<ellipse fill="none" stroke="black" cx="135" cy="-90" rx="27" ry="18"/>
<text text-anchor="middle" x="135" y="-86.3" font-family="Times,serif" font-size="14.00">5</text>
</g>
<!-- n2&#45;&#45;n10 -->
<g id="edge5" class="edge">
<title>n2&#45;&#45;n10</title>
<path fill="none" stroke="black" d="M135,-143.7C135,-132.85 135,-118.92 135,-108.1"/>
</g>
<!-- n4 -->
<g id="node4" class="node">
<title>n4</title>
<ellipse fill="none" stroke="black" cx="27" cy="-18" rx="27" ry="18"/>
<text text-anchor="middle" x="27" y="-14.3" font-family="Times,serif" font-size="14.00">7</text>
</g>
<!-- n3&#45;&#45;n4 -->
<g id="edge3" class="edge">
<title>n3&#45;&#45;n4</title>
<path fill="none" stroke="black" d="M54.65,-72.76C48.83,-61.46 41.11,-46.44 35.3,-35.15"/>
</g>
<!-- n7 -->
<g id="node5" class="node">
<title>n7</title>
<ellipse fill="none" stroke="black" cx="99" cy="-18" rx="27" ry="18"/>
<text text-anchor="middle" x="99" y="-14.3" font-family="Times,serif" font-size="14.00">2</text>
</g>
<!-- n3&#45;&#45;n7 -->
<g id="edge4" class="edge">
<title>n3&#45;&#45;n7</title>
<path fill="none" stroke="black" d="M71.35,-72.76C77.17,-61.46 84.89,-46.44 90.7,-35.15"/>
</g>
<!-- n14 -->
<g id="node8" class="node">
<title>n14</title>
<ellipse fill="none" stroke="black" cx="207" cy="-90" rx="27" ry="18"/>
<text text-anchor="middle" x="207" y="-86.3" font-family="Times,serif" font-size="14.00">3</text>
</g>
<!-- n13&#45;&#45;n14 -->
<g id="edge7" class="edge">
<title>n13&#45;&#45;n14</title>
<path fill="none" stroke="black" d="M207,-143.7C207,-132.85 207,-118.92 207,-108.1"/>
</g>
<!-- n17 -->
<g id="node9" class="node">
<title>n17</title>
<ellipse fill="none" stroke="black" cx="279" cy="-90" rx="27" ry="18"/>
<text text-anchor="middle" x="279" y="-86.3" font-family="Times,serif" font-size="14.00">5</text>
</g>
<!-- n13&#45;&#45;n17 -->
<g id="edge8" class="edge">
<title>n13&#45;&#45;n17</title>
<path fill="none" stroke="black" d="M221.57,-146.83C233.98,-134.77 251.73,-117.51 264.2,-105.38"/>
</g>
</g>
</svg>
