<?xml version="1.0" encoding="UTF-8" standalone="no"?>
<!DOCTYPE svg PUBLIC "-//W3C//DTD SVG 1.1//EN"
 "http://www.w3.org/Graphics/SVG/1.1/DTD/svg11.dtd">
<!-- Generated by graphviz version 2.44.1 (20200629.0846)
 -->
<!-- Title: G Pages: 1 -->
<svg width="422pt" height="404pt"
 viewBox="0.00 0.00 422.00 404.00" xmlns="http://www.w3.org/2000/svg" xmlns:xlink="http://www.w3.org/1999/xlink">
<g id="graph0" class="graph" transform="scale(1 1) rotate(0) translate(4 400)">
<title>G</title>
<polygon fill="white" stroke="transparent" points="-4,4 -4,-400 418,-400 418,4 -4,4"/>
<!-- n1 -->
<g id="node1" class="node">
<title>n1</title>
<ellipse fill="none" stroke="black" cx="135" cy="-378" rx="27" ry="18"/>
<text text-anchor="middle" x="135" y="-374.3" font-family="Times New Roman,serif" font-size="14.00">&#45;</text>
</g>
<!-- n2 -->
<g id="node2" class="node">
<title>n2</title>
<ellipse fill="none" stroke="black" cx="99" cy="-306" rx="27" ry="18"/>
<text text-anchor="middle" x="99" y="-302.3" font-family="Times New Roman,serif" font-size="14.00">*</text>
</g>
<!-- n1&#45;&#45;n2 -->
<g id="edge1" class="edge">
<title>n1&#45;&#45;n2</title>
<path fill="none" stroke="black" d="M126.65,-360.76C120.83,-349.46 113.11,-334.44 107.3,-323.15"/>
</g>
<!-- n9 -->
<g id="node5" class="node">
<title>n9</title>
<ellipse fill="none" stroke="black" cx="171" cy="-306" rx="27" ry="18"/>
<text text-anchor="middle" x="171" y="-302.3" font-family="Times New Roman,serif" font-size="14.00">+</text>
</g>
<!-- n1&#45;&#45;n9 -->
<g id="edge4" class="edge">
<title>n1&#45;&#45;n9</title>
<path fill="none" stroke="black" d="M143.35,-360.76C149.17,-349.46 156.89,-334.44 162.7,-323.15"/>
</g>
<!-- n3 -->
<g id="node3" class="node">
<title>n3</title>
<ellipse fill="none" stroke="black" cx="27" cy="-234" rx="27" ry="18"/>
<text text-anchor="middle" x="27" y="-230.3" font-family="Times New Roman,serif" font-size="14.00">3</text>
</g>
<!-- n2&#45;&#45;n3 -->
<g id="edge2" class="edge">
<title>n2&#45;&#45;n3</title>
<path fill="none" stroke="black" d="M84.43,-290.83C72.02,-278.77 54.27,-261.51 41.8,-249.38"/>
</g>
<!-- n6 -->
<g id="node4" class="node">
<title>n6</title>
<ellipse fill="none" stroke="black" cx="99" cy="-234" rx="27" ry="18"/>
<text text-anchor="middle" x="99" y="-230.3" font-family="Times New Roman,serif" font-size="14.00">5</text>
</g>
<!-- n2&#45;&#45;n6 -->
<g id="edge3" class="edge">
<title>n2&#45;&#45;n6</title>
<path fill="none" stroke="black" d="M99,-287.7C99,-276.85 99,-262.92 99,-252.1"/>
</g>
<!-- n10 -->
<g id="node6" class="node">
<title>n10</title>
<ellipse fill="none" stroke="black" cx="171" cy="-234" rx="27" ry="18"/>
<text text-anchor="middle" x="171" y="-230.3" font-family="Times New Roman,serif" font-size="14.00">*</text>
</g>
<!-- n9&#45;&#45;n10 -->
<g id="edge5" class="edge">
<title>n9&#45;&#45;n10</title>
<path fill="none" stroke="black" d="M171,-287.7C171,-276.85 171,-262.92 171,-252.1"/>
</g>
<!-- n17 -->
<g id="node9" class="node">
<title>n17</title>
<ellipse fill="none" stroke="black" cx="243" cy="-234" rx="27" ry="18"/>
<text text-anchor="middle" x="243" y="-230.3" font-family="Times New Roman,serif" font-size="14.00">+</text>
</g>
<!-- n9&#45;&#45;n17 -->
<g id="edge8" class="edge">
<title>n9&#45;&#45;n17</title>
<path fill="none" stroke="black" d="M185.57,-290.83C197.98,-278.77 215.73,-261.51 228.2,-249.38"/>
</g>
<!-- n11 -->
<g id="node7" class="node">
<title>n11</title>
<ellipse fill="none" stroke="black" cx="99" cy="-162" rx="27" ry="18"/>
<text text-anchor="middle" x="99" y="-158.3" font-family="Times New Roman,serif" font-size="14.00">3</text>
</g>
<!-- n10&#45;&#45;n11 -->
<g id="edge6" class="edge">
<title>n10&#45;&#45;n11</title>
<path fill="none" stroke="black" d="M156.43,-218.83C144.02,-206.77 126.27,-189.51 113.8,-177.38"/>
</g>
<!-- n14 -->
<g id="node8" class="node">
<title>n14</title>
<ellipse fill="none" stroke="black" cx="171" cy="-162" rx="27" ry="18"/>
<text text-anchor="middle" x="171" y="-158.3" font-family="Times New Roman,serif" font-size="14.00">7</text>
</g>
<!-- n10&#45;&#45;n14 -->
<g id="edge7" class="edge">
<title>n10&#45;&#45;n14</title>
<path fill="none" stroke="black" d="M171,-215.7C171,-204.85 171,-190.92 171,-180.1"/>
</g>
<!-- n18 -->
<g id="node10" class="node">
<title>n18</title>
<ellipse fill="none" stroke="black" cx="243" cy="-162" rx="27" ry="18"/>
<text text-anchor="middle" x="243" y="-158.3" font-family="Times New Roman,serif" font-size="14.00">5</text>
</g>
<!-- n17&#45;&#45;n18 -->
<g id="edge9" class="edge">
<title>n17&#45;&#45;n18</title>
<path fill="none" stroke="black" d="M243,-215.7C243,-204.85 243,-190.92 243,-180.1"/>
</g>
<!-- n21 -->
<g id="node11" class="node">
<title>n21</title>
<ellipse fill="none" stroke="black" cx="315" cy="-162" rx="27" ry="18"/>
<text text-anchor="middle" x="315" y="-158.3" font-family="Times New Roman,serif" font-size="14.00">&#45;</text>
</g>
<!-- n17&#45;&#45;n21 -->
<g id="edge10" class="edge">
<title>n17&#45;&#45;n21</title>
<path fill="none" stroke="black" d="M257.57,-218.83C269.98,-206.77 287.73,-189.51 300.2,-177.38"/>
</g>
<!-- n22 -->
<g id="node12" class="node">
<title>n22</title>
<ellipse fill="none" stroke="black" cx="279" cy="-90" rx="27" ry="18"/>
<text text-anchor="middle" x="279" y="-86.3" font-family="Times New Roman,serif" font-size="14.00">4</text>
</g>
<!-- n21&#45;&#45;n22 -->
<g id="edge11" class="edge">
<title>n21&#45;&#45;n22</title>
<path fill="none" stroke="black" d="M306.65,-144.76C300.83,-133.46 293.11,-118.44 287.3,-107.15"/>
</g>
<!-- n25 -->
<g id="node13" class="node">
<title>n25</title>
<ellipse fill="none" stroke="black" cx="351" cy="-90" rx="27" ry="18"/>
<text text-anchor="middle" x="351" y="-86.3" font-family="Times New Roman,serif" font-size="14.00">/</text>
</g>
<!-- n21&#45;&#45;n25 -->
<g id="edge12" class="edge">
<title>n21&#45;&#45;n25</title>
<path fill="none" stroke="black" d="M323.35,-144.76C329.17,-133.46 336.89,-118.44 342.7,-107.15"/>
</g>
<!-- n26 -->
<g id="node14" class="node">
<title>n26</title>
<ellipse fill="none" stroke="black" cx="315" cy="-18" rx="27" ry="18"/>
<text text-anchor="middle" x="315" y="-14.3" font-family="Times New Roman,serif" font-size="14.00">7</text>
</g>
<!-- n25&#45;&#45;n26 -->
<g id="edge13" class="edge">
<title>n25&#45;&#45;n26</title>
<path fill="none" stroke="black" d="M342.65,-72.76C336.83,-61.46 329.11,-46.44 323.3,-35.15"/>
</g>
<!-- n29 -->
<g id="node15" class="node">
<title>n29</title>
<ellipse fill="none" stroke="black" cx="387" cy="-18" rx="27" ry="18"/>
<text text-anchor="middle" x="387" y="-14.3" font-family="Times New Roman,serif" font-size="14.00">2</text>
</g>
<!-- n25&#45;&#45;n29 -->
<g id="edge14" class="edge">
<title>n25&#45;&#45;n29</title>
<path fill="none" stroke="black" d="M359.35,-72.76C365.17,-61.46 372.89,-46.44 378.7,-35.15"/>
</g>
</g>
</svg>
