<?xml version="1.0" encoding="UTF-8" standalone="no"?>
<!DOCTYPE svg PUBLIC "-//W3C//DTD SVG 1.1//EN"
 "http://www.w3.org/Graphics/SVG/1.1/DTD/svg11.dtd">
<!-- Generated by graphviz version 2.43.0 (0)
 -->
<!-- Title: G Pages: 1 -->
<svg width="417pt" height="332pt"
 viewBox="0.00 0.00 416.89 332.00" xmlns="http://www.w3.org/2000/svg" xmlns:xlink="http://www.w3.org/1999/xlink">
<g id="graph0" class="graph" transform="scale(1 1) rotate(0) translate(4 328)">
<title>G</title>
<polygon fill="white" stroke="transparent" points="-4,4 -4,-328 412.89,-328 412.89,4 -4,4"/>
<!-- n1 -->
<g id="node1" class="node">
<title>n1</title>
<ellipse fill="none" stroke="black" cx="217.3" cy="-306" rx="27" ry="18"/>
<text text-anchor="middle" x="217.3" y="-302.3" font-family="Times,serif" font-size="14.00">*</text>
</g>
<!-- n2 -->
<g id="node2" class="node">
<title>n2</title>
<ellipse fill="none" stroke="black" cx="181.3" cy="-234" rx="27" ry="18"/>
<text text-anchor="middle" x="181.3" y="-230.3" font-family="Times,serif" font-size="14.00">&#45;</text>
</g>
<!-- n1&#45;&#45;n2 -->
<g id="edge1" class="edge">
<title>n1&#45;&#45;n2</title>
<path fill="none" stroke="black" d="M208.95,-288.76C203.13,-277.46 195.41,-262.44 189.6,-251.15"/>
</g>
<!-- n25 -->
<g id="node13" class="node">
<title>n25</title>
<ellipse fill="none" stroke="black" cx="253.3" cy="-234" rx="27" ry="18"/>
<text text-anchor="middle" x="253.3" y="-230.3" font-family="Times,serif" font-size="14.00">5</text>
</g>
<!-- n1&#45;&#45;n25 -->
<g id="edge12" class="edge">
<title>n1&#45;&#45;n25</title>
<path fill="none" stroke="black" d="M225.65,-288.76C231.46,-277.46 239.19,-262.44 244.99,-251.15"/>
</g>
<!-- n3 -->
<g id="node3" class="node">
<title>n3</title>
<ellipse fill="none" stroke="black" cx="139.3" cy="-162" rx="27" ry="18"/>
<text text-anchor="middle" x="139.3" y="-158.3" font-family="Times,serif" font-size="14.00">+</text>
</g>
<!-- n2&#45;&#45;n3 -->
<g id="edge2" class="edge">
<title>n2&#45;&#45;n3</title>
<path fill="none" stroke="black" d="M171.77,-217.12C164.99,-205.82 155.91,-190.7 149.08,-179.31"/>
</g>
<!-- n10 -->
<g id="node6" class="node">
<title>n10</title>
<ellipse fill="none" stroke="black" cx="224.3" cy="-162" rx="27" ry="18"/>
<text text-anchor="middle" x="224.3" y="-158.3" font-family="Times,serif" font-size="14.00">/</text>
</g>
<!-- n2&#45;&#45;n10 -->
<g id="edge5" class="edge">
<title>n2&#45;&#45;n10</title>
<path fill="none" stroke="black" d="M191.05,-217.12C198.09,-205.66 207.55,-190.26 214.58,-178.82"/>
</g>
<!-- n4 -->
<g id="node4" class="node">
<title>n4</title>
<ellipse fill="none" stroke="black" cx="40.3" cy="-90" rx="40.09" ry="18"/>
<text text-anchor="middle" x="40.3" y="-86.3" font-family="Times,serif" font-size="14.00">a[100]</text>
</g>
<!-- n3&#45;&#45;n4 -->
<g id="edge3" class="edge">
<title>n3&#45;&#45;n4</title>
<path fill="none" stroke="black" d="M121.14,-148.16C104.17,-136.16 78.85,-118.26 61.08,-105.7"/>
</g>
<!-- n7 -->
<g id="node5" class="node">
<title>n7</title>
<ellipse fill="none" stroke="black" cx="139.3" cy="-90" rx="40.09" ry="18"/>
<text text-anchor="middle" x="139.3" y="-86.3" font-family="Times,serif" font-size="14.00">a[110]</text>
</g>
<!-- n3&#45;&#45;n7 -->
<g id="edge4" class="edge">
<title>n3&#45;&#45;n7</title>
<path fill="none" stroke="black" d="M139.3,-143.7C139.3,-132.85 139.3,-118.92 139.3,-108.1"/>
</g>
<!-- n11 -->
<g id="node7" class="node">
<title>n11</title>
<ellipse fill="none" stroke="black" cx="224.3" cy="-90" rx="27" ry="18"/>
<text text-anchor="middle" x="224.3" y="-86.3" font-family="Times,serif" font-size="14.00">&#45;</text>
</g>
<!-- n10&#45;&#45;n11 -->
<g id="edge6" class="edge">
<title>n10&#45;&#45;n11</title>
<path fill="none" stroke="black" d="M224.3,-143.7C224.3,-132.85 224.3,-118.92 224.3,-108.1"/>
</g>
<!-- n18 -->
<g id="node10" class="node">
<title>n18</title>
<ellipse fill="none" stroke="black" cx="305.3" cy="-90" rx="27" ry="18"/>
<text text-anchor="middle" x="305.3" y="-86.3" font-family="Times,serif" font-size="14.00">+</text>
</g>
<!-- n10&#45;&#45;n18 -->
<g id="edge9" class="edge">
<title>n10&#45;&#45;n18</title>
<path fill="none" stroke="black" d="M240.3,-147.17C254.5,-134.9 275.14,-117.06 289.33,-104.8"/>
</g>
<!-- n12 -->
<g id="node8" class="node">
<title>n12</title>
<ellipse fill="none" stroke="black" cx="137.3" cy="-18" rx="34.39" ry="18"/>
<text text-anchor="middle" x="137.3" y="-14.3" font-family="Times,serif" font-size="14.00">3520</text>
</g>
<!-- n11&#45;&#45;n12 -->
<g id="edge7" class="edge">
<title>n11&#45;&#45;n12</title>
<path fill="none" stroke="black" d="M207.52,-75.5C192.51,-63.43 170.57,-45.77 155.22,-33.42"/>
</g>
<!-- n15 -->
<g id="node9" class="node">
<title>n15</title>
<ellipse fill="none" stroke="black" cx="224.3" cy="-18" rx="34.39" ry="18"/>
<text text-anchor="middle" x="224.3" y="-14.3" font-family="Times,serif" font-size="14.00">2653</text>
</g>
<!-- n11&#45;&#45;n15 -->
<g id="edge8" class="edge">
<title>n11&#45;&#45;n15</title>
<path fill="none" stroke="black" d="M224.3,-71.7C224.3,-60.85 224.3,-46.92 224.3,-36.1"/>
</g>
<!-- n19 -->
<g id="node11" class="node">
<title>n19</title>
<ellipse fill="none" stroke="black" cx="305.3" cy="-18" rx="28.7" ry="18"/>
<text text-anchor="middle" x="305.3" y="-14.3" font-family="Times,serif" font-size="14.00">283</text>
</g>
<!-- n18&#45;&#45;n19 -->
<g id="edge10" class="edge">
<title>n18&#45;&#45;n19</title>
<path fill="none" stroke="black" d="M305.3,-71.7C305.3,-60.85 305.3,-46.92 305.3,-36.1"/>
</g>
<!-- n22 -->
<g id="node12" class="node">
<title>n22</title>
<ellipse fill="none" stroke="black" cx="380.3" cy="-18" rx="28.7" ry="18"/>
<text text-anchor="middle" x="380.3" y="-14.3" font-family="Times,serif" font-size="14.00">836</text>
</g>
<!-- n18&#45;&#45;n22 -->
<g id="edge11" class="edge">
<title>n18&#45;&#45;n22</title>
<path fill="none" stroke="black" d="M320.47,-74.83C333.4,-62.77 351.89,-45.51 364.88,-33.38"/>
</g>
</g>
</svg>
