<?xml version="1.0" encoding="UTF-8" standalone="no"?>
<!DOCTYPE svg PUBLIC "-//W3C//DTD SVG 1.1//EN"
 "http://www.w3.org/Graphics/SVG/1.1/DTD/svg11.dtd">
<!-- Generated by graphviz version 2.44.1 (20200629.0846)
 -->
<!-- Title: G Pages: 1 -->
<svg width="284pt" height="332pt"
 viewBox="0.00 0.00 283.90 332.00" xmlns="http://www.w3.org/2000/svg" xmlns:xlink="http://www.w3.org/1999/xlink">
<g id="graph0" class="graph" transform="scale(1 1) rotate(0) translate(4 328)">
<title>G</title>
<polygon fill="white" stroke="transparent" points="-4,4 -4,-328 279.9,-328 279.9,4 -4,4"/>
<!-- n1 -->
<g id="node1" class="node">
<title>n1</title>
<ellipse fill="none" stroke="black" cx="66.9" cy="-306" rx="27" ry="18"/>
<text text-anchor="middle" x="66.9" y="-302.3" font-family="Times New Roman,serif" font-size="14.00">&#45;</text>
</g>
<!-- n2 -->
<g id="node2" class="node">
<title>n2</title>
<ellipse fill="none" stroke="black" cx="29.9" cy="-234" rx="29.8" ry="18"/>
<text text-anchor="middle" x="29.9" y="-230.3" font-family="Times New Roman,serif" font-size="14.00">name</text>
</g>
<!-- n1&#45;&#45;n2 -->
<g id="edge1" class="edge">
<title>n1&#45;&#45;n2</title>
<path fill="none" stroke="black" d="M58.32,-288.76C52.42,-277.62 44.63,-262.87 38.69,-251.63"/>
</g>
<!-- n5 -->
<g id="node3" class="node">
<title>n5</title>
<ellipse fill="none" stroke="black" cx="104.9" cy="-234" rx="27" ry="18"/>
<text text-anchor="middle" x="104.9" y="-230.3" font-family="Times New Roman,serif" font-size="14.00">+</text>
</g>
<!-- n1&#45;&#45;n5 -->
<g id="edge2" class="edge">
<title>n1&#45;&#45;n5</title>
<path fill="none" stroke="black" d="M75.71,-288.76C81.85,-277.46 90,-262.44 96.13,-251.15"/>
</g>
<!-- n6 -->
<g id="node4" class="node">
<title>n6</title>
<ellipse fill="none" stroke="black" cx="68.9" cy="-162" rx="27" ry="18"/>
<text text-anchor="middle" x="68.9" y="-158.3" font-family="Times New Roman,serif" font-size="14.00">5</text>
</g>
<!-- n5&#45;&#45;n6 -->
<g id="edge3" class="edge">
<title>n5&#45;&#45;n6</title>
<path fill="none" stroke="black" d="M96.55,-216.76C90.73,-205.46 83.01,-190.44 77.2,-179.15"/>
</g>
<!-- n9 -->
<g id="node5" class="node">
<title>n9</title>
<ellipse fill="none" stroke="black" cx="140.9" cy="-162" rx="27" ry="18"/>
<text text-anchor="middle" x="140.9" y="-158.3" font-family="Times New Roman,serif" font-size="14.00">+</text>
</g>
<!-- n5&#45;&#45;n9 -->
<g id="edge4" class="edge">
<title>n5&#45;&#45;n9</title>
<path fill="none" stroke="black" d="M113.25,-216.76C119.06,-205.46 126.79,-190.44 132.59,-179.15"/>
</g>
<!-- n10 -->
<g id="node6" class="node">
<title>n10</title>
<ellipse fill="none" stroke="black" cx="104.9" cy="-90" rx="27" ry="18"/>
<text text-anchor="middle" x="104.9" y="-86.3" font-family="Times New Roman,serif" font-size="14.00">+</text>
</g>
<!-- n9&#45;&#45;n10 -->
<g id="edge5" class="edge">
<title>n9&#45;&#45;n10</title>
<path fill="none" stroke="black" d="M132.55,-144.76C126.73,-133.46 119.01,-118.44 113.2,-107.15"/>
</g>
<!-- n17 -->
<g id="node9" class="node">
<title>n17</title>
<ellipse fill="none" stroke="black" cx="176.9" cy="-90" rx="27" ry="18"/>
<text text-anchor="middle" x="176.9" y="-86.3" font-family="Times New Roman,serif" font-size="14.00">+</text>
</g>
<!-- n9&#45;&#45;n17 -->
<g id="edge8" class="edge">
<title>n9&#45;&#45;n17</title>
<path fill="none" stroke="black" d="M149.25,-144.76C155.06,-133.46 162.79,-118.44 168.59,-107.15"/>
</g>
<!-- n11 -->
<g id="node7" class="node">
<title>n11</title>
<ellipse fill="none" stroke="black" cx="32.9" cy="-18" rx="27" ry="18"/>
<text text-anchor="middle" x="32.9" y="-14.3" font-family="Times New Roman,serif" font-size="14.00">1</text>
</g>
<!-- n10&#45;&#45;n11 -->
<g id="edge6" class="edge">
<title>n10&#45;&#45;n11</title>
<path fill="none" stroke="black" d="M90.33,-74.83C77.92,-62.77 60.17,-45.51 47.69,-33.38"/>
</g>
<!-- n14 -->
<g id="node8" class="node">
<title>n14</title>
<ellipse fill="none" stroke="black" cx="104.9" cy="-18" rx="27" ry="18"/>
<text text-anchor="middle" x="104.9" y="-14.3" font-family="Times New Roman,serif" font-size="14.00">5</text>
</g>
<!-- n10&#45;&#45;n14 -->
<g id="edge7" class="edge">
<title>n10&#45;&#45;n14</title>
<path fill="none" stroke="black" d="M104.9,-71.7C104.9,-60.85 104.9,-46.92 104.9,-36.1"/>
</g>
<!-- n18 -->
<g id="node10" class="node">
<title>n18</title>
<ellipse fill="none" stroke="black" cx="176.9" cy="-18" rx="27" ry="18"/>
<text text-anchor="middle" x="176.9" y="-14.3" font-family="Times New Roman,serif" font-size="14.00">1</text>
</g>
<!-- n17&#45;&#45;n18 -->
<g id="edge9" class="edge">
<title>n17&#45;&#45;n18</title>
<path fill="none" stroke="black" d="M176.9,-71.7C176.9,-60.85 176.9,-46.92 176.9,-36.1"/>
</g>
<!-- n21 -->
<g id="node11" class="node">
<title>n21</title>
<ellipse fill="none" stroke="black" cx="248.9" cy="-18" rx="27" ry="18"/>
<text text-anchor="middle" x="248.9" y="-14.3" font-family="Times New Roman,serif" font-size="14.00">2</text>
</g>
<!-- n17&#45;&#45;n21 -->
<g id="edge10" class="edge">
<title>n17&#45;&#45;n21</title>
<path fill="none" stroke="black" d="M191.47,-74.83C203.88,-62.77 221.63,-45.51 234.1,-33.38"/>
</g>
</g>
</svg>
