<?xml version="1.0" encoding="UTF-8" standalone="no"?>
<!DOCTYPE svg PUBLIC "-//W3C//DTD SVG 1.1//EN"
 "http://www.w3.org/Graphics/SVG/1.1/DTD/svg11.dtd">
<!-- Generated by graphviz version 2.44.1 (20200629.0846)
 -->
<!-- Title: G Pages: 1 -->
<svg width="422pt" height="404pt"
 viewBox="0.00 0.00 422.00 404.00" xmlns="http://www.w3.org/2000/svg" xmlns:xlink="http://www.w3.org/1999/xlink">
<g id="graph0" class="graph" transform="scale(1 1) rotate(0) translate(4 400)">
<title>G</title>
<polygon fill="white" stroke="transparent" points="-4,4 -4,-400 418,-400 418,4 -4,4"/>
<!-- n1 -->
<g id="node1" class="node">
<title>n1</title>
<ellipse fill="none" stroke="black" cx="279" cy="-378" rx="27" ry="18"/>
<text text-anchor="middle" x="279" y="-374.3" font-family="Times New Roman,serif" font-size="14.00">&#45;</text>
</g>
<!-- n2 -->
<g id="node2" class="node">
<title>n2</title>
<ellipse fill="none" stroke="black" cx="243" cy="-306" rx="27" ry="18"/>
<text text-anchor="middle" x="243" y="-302.3" font-family="Times New Roman,serif" font-size="14.00">+</text>
</g>
<!-- n1&#45;&#45;n2 -->
<g id="edge1" class="edge">
<title>n1&#45;&#45;n2</title>
<path fill="none" stroke="black" d="M270.65,-360.76C264.83,-349.46 257.11,-334.44 251.3,-323.15"/>
</g>
<!-- n25 -->
<g id="node13" class="node">
<title>n25</title>
<ellipse fill="none" stroke="black" cx="315" cy="-306" rx="27" ry="18"/>
<text text-anchor="middle" x="315" y="-302.3" font-family="Times New Roman,serif" font-size="14.00">/</text>
</g>
<!-- n1&#45;&#45;n25 -->
<g id="edge12" class="edge">
<title>n1&#45;&#45;n25</title>
<path fill="none" stroke="black" d="M287.35,-360.76C293.17,-349.46 300.89,-334.44 306.7,-323.15"/>
</g>
<!-- n3 -->
<g id="node3" class="node">
<title>n3</title>
<ellipse fill="none" stroke="black" cx="171" cy="-234" rx="27" ry="18"/>
<text text-anchor="middle" x="171" y="-230.3" font-family="Times New Roman,serif" font-size="14.00">+</text>
</g>
<!-- n2&#45;&#45;n3 -->
<g id="edge2" class="edge">
<title>n2&#45;&#45;n3</title>
<path fill="none" stroke="black" d="M228.43,-290.83C216.02,-278.77 198.27,-261.51 185.8,-249.38"/>
</g>
<!-- n22 -->
<g id="node12" class="node">
<title>n22</title>
<ellipse fill="none" stroke="black" cx="243" cy="-234" rx="27" ry="18"/>
<text text-anchor="middle" x="243" y="-230.3" font-family="Times New Roman,serif" font-size="14.00">4</text>
</g>
<!-- n2&#45;&#45;n22 -->
<g id="edge11" class="edge">
<title>n2&#45;&#45;n22</title>
<path fill="none" stroke="black" d="M243,-287.7C243,-276.85 243,-262.92 243,-252.1"/>
</g>
<!-- n4 -->
<g id="node4" class="node">
<title>n4</title>
<ellipse fill="none" stroke="black" cx="135" cy="-162" rx="27" ry="18"/>
<text text-anchor="middle" x="135" y="-158.3" font-family="Times New Roman,serif" font-size="14.00">&#45;</text>
</g>
<!-- n3&#45;&#45;n4 -->
<g id="edge3" class="edge">
<title>n3&#45;&#45;n4</title>
<path fill="none" stroke="black" d="M162.65,-216.76C156.83,-205.46 149.11,-190.44 143.3,-179.15"/>
</g>
<!-- n19 -->
<g id="node11" class="node">
<title>n19</title>
<ellipse fill="none" stroke="black" cx="207" cy="-162" rx="27" ry="18"/>
<text text-anchor="middle" x="207" y="-158.3" font-family="Times New Roman,serif" font-size="14.00">5</text>
</g>
<!-- n3&#45;&#45;n19 -->
<g id="edge10" class="edge">
<title>n3&#45;&#45;n19</title>
<path fill="none" stroke="black" d="M179.35,-216.76C185.17,-205.46 192.89,-190.44 198.7,-179.15"/>
</g>
<!-- n5 -->
<g id="node5" class="node">
<title>n5</title>
<ellipse fill="none" stroke="black" cx="99" cy="-90" rx="27" ry="18"/>
<text text-anchor="middle" x="99" y="-86.3" font-family="Times New Roman,serif" font-size="14.00">*</text>
</g>
<!-- n4&#45;&#45;n5 -->
<g id="edge4" class="edge">
<title>n4&#45;&#45;n5</title>
<path fill="none" stroke="black" d="M126.65,-144.76C120.83,-133.46 113.11,-118.44 107.3,-107.15"/>
</g>
<!-- n12 -->
<g id="node8" class="node">
<title>n12</title>
<ellipse fill="none" stroke="black" cx="171" cy="-90" rx="27" ry="18"/>
<text text-anchor="middle" x="171" y="-86.3" font-family="Times New Roman,serif" font-size="14.00">*</text>
</g>
<!-- n4&#45;&#45;n12 -->
<g id="edge7" class="edge">
<title>n4&#45;&#45;n12</title>
<path fill="none" stroke="black" d="M143.35,-144.76C149.17,-133.46 156.89,-118.44 162.7,-107.15"/>
</g>
<!-- n6 -->
<g id="node6" class="node">
<title>n6</title>
<ellipse fill="none" stroke="black" cx="27" cy="-18" rx="27" ry="18"/>
<text text-anchor="middle" x="27" y="-14.3" font-family="Times New Roman,serif" font-size="14.00">3</text>
</g>
<!-- n5&#45;&#45;n6 -->
<g id="edge5" class="edge">
<title>n5&#45;&#45;n6</title>
<path fill="none" stroke="black" d="M84.43,-74.83C72.02,-62.77 54.27,-45.51 41.8,-33.38"/>
</g>
<!-- n9 -->
<g id="node7" class="node">
<title>n9</title>
<ellipse fill="none" stroke="black" cx="99" cy="-18" rx="27" ry="18"/>
<text text-anchor="middle" x="99" y="-14.3" font-family="Times New Roman,serif" font-size="14.00">5</text>
</g>
<!-- n5&#45;&#45;n9 -->
<g id="edge6" class="edge">
<title>n5&#45;&#45;n9</title>
<path fill="none" stroke="black" d="M99,-71.7C99,-60.85 99,-46.92 99,-36.1"/>
</g>
<!-- n13 -->
<g id="node9" class="node">
<title>n13</title>
<ellipse fill="none" stroke="black" cx="171" cy="-18" rx="27" ry="18"/>
<text text-anchor="middle" x="171" y="-14.3" font-family="Times New Roman,serif" font-size="14.00">3</text>
</g>
<!-- n12&#45;&#45;n13 -->
<g id="edge8" class="edge">
<title>n12&#45;&#45;n13</title>
<path fill="none" stroke="black" d="M171,-71.7C171,-60.85 171,-46.92 171,-36.1"/>
</g>
<!-- n16 -->
<g id="node10" class="node">
<title>n16</title>
<ellipse fill="none" stroke="black" cx="243" cy="-18" rx="27" ry="18"/>
<text text-anchor="middle" x="243" y="-14.3" font-family="Times New Roman,serif" font-size="14.00">7</text>
</g>
<!-- n12&#45;&#45;n16 -->
<g id="edge9" class="edge">
<title>n12&#45;&#45;n16</title>
<path fill="none" stroke="black" d="M185.57,-74.83C197.98,-62.77 215.73,-45.51 228.2,-33.38"/>
</g>
<!-- n26 -->
<g id="node14" class="node">
<title>n26</title>
<ellipse fill="none" stroke="black" cx="315" cy="-234" rx="27" ry="18"/>
<text text-anchor="middle" x="315" y="-230.3" font-family="Times New Roman,serif" font-size="14.00">7</text>
</g>
<!-- n25&#45;&#45;n26 -->
<g id="edge13" class="edge">
<title>n25&#45;&#45;n26</title>
<path fill="none" stroke="black" d="M315,-287.7C315,-276.85 315,-262.92 315,-252.1"/>
</g>
<!-- n29 -->
<g id="node15" class="node">
<title>n29</title>
<ellipse fill="none" stroke="black" cx="387" cy="-234" rx="27" ry="18"/>
<text text-anchor="middle" x="387" y="-230.3" font-family="Times New Roman,serif" font-size="14.00">2</text>
</g>
<!-- n25&#45;&#45;n29 -->
<g id="edge14" class="edge">
<title>n25&#45;&#45;n29</title>
<path fill="none" stroke="black" d="M329.57,-290.83C341.98,-278.77 359.73,-261.51 372.2,-249.38"/>
</g>
</g>
</svg>
